<svg xmlns="http://www.w3.org/2000/svg" width="245.671" height="42.826" viewBox="0 0 245.671 42.826"><defs><style>.a{fill:#005f86;}.b{fill:#ca252b;}.c{fill:#595959;}</style></defs><g transform="translate(7190 -320)"><path class="a" d="M676.2,466.043q2.323,1.919,2.323,6.361v15.906h-6.339v-14.37a6.607,6.607,0,0,0-.494-2.862,3.475,3.475,0,0,0-3.442-1.82,4.266,4.266,0,0,0-4.28,2.665,9.229,9.229,0,0,0-.6,3.6v12.789H657.2V464.744h5.961v3.433a10.466,10.466,0,0,1,2.247-2.622,7.792,7.792,0,0,1,4.819-1.431,9.07,9.07,0,0,1,5.975,1.918Zm11.56,4.473a4.925,4.925,0,0,1,3.677-1.328,5.448,5.448,0,0,1,3.653,1.254,5.043,5.043,0,0,1,1.64,3.674H686.116a6.281,6.281,0,0,1,1.641-3.6Zm9.211-5.355a13.406,13.406,0,0,0-5.546-1.106,11.358,11.358,0,0,0-8.431,3.274q-3.249,3.276-3.248,9.411,0,6.55,3.6,9.455a12.819,12.819,0,0,0,8.3,2.906q5.7,0,8.866-3.447a7.715,7.715,0,0,0,2.284-4.27h-6.279a4.779,4.779,0,0,1-4.681,2.721,6.212,6.212,0,0,1-3.393-.891q-2.319-1.435-2.46-5h17.146a30.394,30.394,0,0,0-.2-4.683,11.618,11.618,0,0,0-1.878-4.88,9.6,9.6,0,0,0-4.075-3.49Zm4.206,3.209h3.308v14.907a4.534,4.534,0,0,0,1.036,3.277c1.066,1.114,3.092,1.765,5.966,1.765l2.919,0v-4.493c-.2.033-.408.06-.615.076s-.408.027-.6.027a4.021,4.021,0,0,1-2.245-.358,2.825,2.825,0,0,1-.368-1.813V468.371H714.4v-3.626h-3.824v-8.612h-6.1v8.612h-3.308v3.626Zm19.348,12.393h-6.27a7.635,7.635,0,0,0,2.657,5.987q2.655,2.35,8.226,2.35,5.46,0,8.072-2.217a7.16,7.16,0,0,0,2.612-5.721,5.936,5.936,0,0,0-1.82-4.434,11.815,11.815,0,0,0-5.519-2.616,39.383,39.383,0,0,1-6.427-1.707,1.606,1.606,0,0,1-.911-1.535A1.807,1.807,0,0,1,722,469.4a4.987,4.987,0,0,1,2.868-.626,4.217,4.217,0,0,1,3.462,1.255,3.637,3.637,0,0,1,.671,1.88h6.167q-.41-4.327-3.2-6.092a13.266,13.266,0,0,0-7.2-1.763q-4.657,0-7.224,2.345a7.347,7.347,0,0,0-2.566,5.611,5.389,5.389,0,0,0,1.645,4.238,13.434,13.434,0,0,0,5.659,2.485,35.279,35.279,0,0,1,6.437,1.859,1.822,1.822,0,0,1-.207,3.212,6.476,6.476,0,0,1-2.894.542q-3.1,0-4.248-1.238a4.125,4.125,0,0,1-.847-2.345Zm31.284-7.614h6.339q-.52-5.043-3.341-7.035a12.312,12.312,0,0,0-7.258-1.991,10.3,10.3,0,0,0-8.176,3.383q-2.964,3.38-2.963,9.47a13.647,13.647,0,0,0,2.673,8.758q2.672,3.365,8.342,3.365t8.558-4.047a10.356,10.356,0,0,0,2.026-5.325h-6.3a5.932,5.932,0,0,1-1.094,3.058,3.592,3.592,0,0,1-3.044,1.18A4.084,4.084,0,0,1,743.447,481a12.049,12.049,0,0,1-.6-4.181,12.976,12.976,0,0,1,.606-4.376,4.233,4.233,0,0,1,4.251-3.079,3.714,3.714,0,0,1,3.216,1.42,5.426,5.426,0,0,1,.886,2.369Zm21.037-8.436c-.081-.006-.178-.009-.293-.009a6.778,6.778,0,0,0-4.506,1.452,13.049,13.049,0,0,0-2.491,3.231v-4.652H759.7v23.573h6.166V477.6a9.416,9.416,0,0,1,.716-4.2q1.282-2.424,5.015-2.426c.188,0,.435.008.738.021s.651.042,1.041.084v-6.34c-.274-.011-.451-.02-.53-.025Zm1.562.022v23.573h6.271V464.736Zm22.968,17.138a4.322,4.322,0,0,1-3.756,1.922,4.69,4.69,0,0,1-4.152-1.987A8.648,8.648,0,0,1,788.1,476.8a11.25,11.25,0,0,1,.661-4.188,4.658,4.658,0,0,1,4.678-3.045,4.59,4.59,0,0,1,4.614,3.11,11.191,11.191,0,0,1,.659,4.145,8.662,8.662,0,0,1-1.339,5.052Zm5.163-14.356a8.842,8.842,0,0,0-7.348-3.359,7.749,7.749,0,0,0-4.28,1.086,9.029,9.029,0,0,0-2.6,2.52V456.126h-6.168v32.183H788.2v-3a9.443,9.443,0,0,0,2.315,2.443,9.5,9.5,0,0,0,12.049-2.44,15.161,15.161,0,0,0,2.62-9.124,13.564,13.564,0,0,0-2.654-8.668Zm10.994,3a4.929,4.929,0,0,1,3.678-1.328,5.446,5.446,0,0,1,3.652,1.254,5.048,5.048,0,0,1,1.641,3.674H811.89a6.272,6.272,0,0,1,1.639-3.6Zm9.212-5.355a13.409,13.409,0,0,0-5.544-1.106,11.362,11.362,0,0,0-8.433,3.274q-3.247,3.276-3.248,9.411,0,6.55,3.6,9.455a12.821,12.821,0,0,0,8.3,2.906q5.7,0,8.868-3.447a7.828,7.828,0,0,0,2.283-4.312h-6.28a5.409,5.409,0,0,1-1.264,1.675,5.176,5.176,0,0,1-3.415,1.089,6.214,6.214,0,0,1-3.393-.891q-2.316-1.435-2.459-5H828.9a30.275,30.275,0,0,0-.2-4.683,11.631,11.631,0,0,0-1.88-4.88,9.586,9.586,0,0,0-4.074-3.49Zm12.622,16.181h-6.335a7.477,7.477,0,0,0,2.64,5.409q2.652,2.35,8.225,2.35,5.461,0,8.074-2.217a7.157,7.157,0,0,0,2.612-5.721,5.936,5.936,0,0,0-1.819-4.434,11.821,11.821,0,0,0-5.521-2.616,39.435,39.435,0,0,1-6.426-1.707,1.606,1.606,0,0,1-.908-1.535,1.8,1.8,0,0,1,.855-1.469,4.983,4.983,0,0,1,2.868-.626,4.216,4.216,0,0,1,3.461,1.255,3.641,3.641,0,0,1,.672,1.88h6.167q-.413-4.327-3.2-6.092a13.262,13.262,0,0,0-7.2-1.763q-4.66,0-7.225,2.345a7.351,7.351,0,0,0-2.567,5.611,5.387,5.387,0,0,0,1.647,4.238,13.413,13.413,0,0,0,5.657,2.485,35.223,35.223,0,0,1,6.439,1.859,1.76,1.76,0,0,1,.864,1.584,1.737,1.737,0,0,1-1.073,1.628,6.473,6.473,0,0,1-2.892.542q-3.1,0-4.251-1.238a3.424,3.424,0,0,1-.764-1.767Z" transform="translate(-7794.908 -136.066)"/><path class="b" d="M678.9,459.355a3.307,3.307,0,1,0-3.306,3.308,3.308,3.308,0,0,0,3.306-3.308Z" transform="translate(-7693.13 -135.991)"/><path class="c" d="M658.095,533.81h.431c.546,0,.869-.247.869-.628s-.3-.6-.8-.6a2.31,2.31,0,0,0-.5.034v1.2Zm-1.085-1.869a9.675,9.675,0,0,1,1.458-.1,2.63,2.63,0,0,1,1.566.349,1.052,1.052,0,0,1,.452.911,1.176,1.176,0,0,1-.854,1.067v.019a1.106,1.106,0,0,1,.646.808,12.363,12.363,0,0,0,.387,1.234h-1.12a5.242,5.242,0,0,1-.331-1.014c-.136-.549-.344-.692-.8-.7h-.324v1.713H657.01v-4.292Zm13.6,2.45h-1.781v1.035h1.99v.807h-3.08v-4.356h2.98v.808h-1.889v.9h1.781v.8Zm8.36-1.687h-1.308v-.827h3.72v.827h-1.322v3.529h-1.091V532.7Zm10.55-.827v2.5c0,.756.324,1.138.876,1.138.575,0,.891-.361.891-1.138v-2.5h1.091v2.442a1.793,1.793,0,0,1-2.019,1.985,1.742,1.742,0,0,1-1.931-2v-2.431Zm11.356,1.933h.43c.546,0,.869-.247.869-.628s-.3-.6-.805-.6a2.3,2.3,0,0,0-.495.034v1.2Zm-1.085-1.869a9.644,9.644,0,0,1,1.457-.1,2.635,2.635,0,0,1,1.567.349,1.052,1.052,0,0,1,.452.911,1.177,1.177,0,0,1-.855,1.067v.019a1.106,1.106,0,0,1,.647.808,11.913,11.913,0,0,0,.388,1.234h-1.121a5.237,5.237,0,0,1-.33-1.014c-.136-.549-.345-.692-.8-.7h-.323v1.713h-1.085v-4.292Zm10.721,4.292v-4.356h1.279l1.006,1.6a13.255,13.255,0,0,1,.79,1.493h.014a16.057,16.057,0,0,1-.086-1.823v-1.267h1.006v4.356h-1.15l-1.035-1.68a14.767,14.767,0,0,1-.839-1.539h-.03c.036.583.051,1.2.051,1.907v1.312Zm17.56-.71c.741,0,1.164-.628,1.164-1.481,0-.782-.409-1.454-1.164-1.454s-1.178.659-1.178,1.473.439,1.462,1.171,1.462Zm-.05.781a2.136,2.136,0,0,1-2.276-2.216A2.221,2.221,0,0,1,728.1,531.8a2.135,2.135,0,0,1,2.3,2.206,2.178,2.178,0,0,1-2.37,2.293Zm9.272-.071v-4.356h1.279l1,1.6a13.19,13.19,0,0,1,.79,1.493h.015a16.077,16.077,0,0,1-.085-1.823v-1.267h1v4.356h-1.149l-1.034-1.68a14.65,14.65,0,0,1-.84-1.539h-.028c.036.583.049,1.2.049,1.907v1.312Zm15.455-4.356h1.085V533.8h.015c.107-.167.221-.323.338-.478l1.091-1.447h1.35l-1.6,1.855,1.681,2.5h-1.271l-1.192-1.881-.409.459v1.421h-1.085v-4.356Zm11.161,4.356v-4.356h1.278l1,1.6a12.888,12.888,0,0,1,.79,1.493H767a16.537,16.537,0,0,1-.086-1.823v-1.267h1.006v4.356h-1.148l-1.035-1.68a14.629,14.629,0,0,1-.84-1.539h-.029c.036.583.049,1.2.049,1.907v1.312Zm13.809-.71c.741,0,1.163-.628,1.163-1.481,0-.782-.407-1.454-1.163-1.454s-1.177.659-1.177,1.473.438,1.462,1.171,1.462Zm-.049.781a2.137,2.137,0,0,1-2.278-2.216,2.222,2.222,0,0,1,2.356-2.283,2.134,2.134,0,0,1,2.3,2.206,2.177,2.177,0,0,1-2.371,2.293Zm10.579-.071-1.148-4.356h1.17l.367,1.791c.107.523.209,1.086.288,1.532h.013c.078-.479.194-1,.316-1.545l.41-1.777h1.164l.387,1.836c.107.511.186.977.258,1.461h.015c.071-.483.179-1,.281-1.519l.393-1.777h1.113l-1.249,4.356h-1.185l-.41-1.875a13.271,13.271,0,0,1-.23-1.345h-.014c-.087.491-.165.905-.281,1.345l-.461,1.875Zm12.353-4.356H801.7v3.529h1.926v.828h-3.017v-4.356Zm13.294,2.514h-1.781v1.035h1.989v.807h-3.082v-4.356h2.981v.808h-1.889v.9H813.9v.8Zm8.8,1.1a2.336,2.336,0,0,0,.38.019,1.436,1.436,0,0,0,1.652-1.525c0-.938-.589-1.383-1.538-1.383a2.525,2.525,0,0,0-.494.039v2.85Zm-1.093-3.549a9.859,9.859,0,0,1,1.473-.1,3.381,3.381,0,0,1,1.989.452,1.873,1.873,0,0,1,.818,1.655,2.125,2.125,0,0,1-.8,1.763,3.775,3.775,0,0,1-2.24.563,10.543,10.543,0,0,1-1.243-.064v-4.273Zm15.793,4.091a5.9,5.9,0,0,1-1.617.246,2.921,2.921,0,0,1-1.967-.581,2.07,2.07,0,0,1-.683-1.59c.008-1.447,1.177-2.275,2.766-2.275a3.828,3.828,0,0,1,1.343.207l-.23.794a2.784,2.784,0,0,0-1.121-.186c-.911,0-1.609.465-1.609,1.408a1.386,1.386,0,0,0,1.53,1.429,1.838,1.838,0,0,0,.532-.058v-.918H835.6v-.769h1.8v2.294Zm10.486-1.641H846.1v1.035h1.989v.807h-3.081v-4.356h2.98v.808H846.1v.9h1.782v.8Z" transform="translate(-7794.816 -173.478)"/><path class="b" d="M574.025,456.008c10.6,0,22.535,10.945,22.535,20.571V496.1a2.673,2.673,0,0,1-2.673,2.674H571.924c-3.993,0-9.624-3.817-11.614-7.781a15.138,15.138,0,0,1,27.053-13.591,2.423,2.423,0,0,1-.71,3.215,2.327,2.327,0,0,1-3.215-.71l-2.453-3.927a7.013,7.013,0,0,0-11.823,7.547l3.54,5.538a.389.389,0,0,1-.655.419l-5.659-8.887s-1.975-2.718-5.579-.058l7.313,11.451a5.048,5.048,0,0,0,8.509-5.434l-1.81-2.835L573.077,481A2.329,2.329,0,0,1,577,478.5l2.623,4.107a6.989,6.989,0,0,0,11.777-7.518l.172.218a19.972,19.972,0,0,0-37.747,7.484l-.036-14.308a12.473,12.473,0,0,1,12.475-12.471Zm22.535,8.475v-8.475h-9.436a25.78,25.78,0,0,1,9.436,8.475Z" transform="translate(-7743.792 -136.008)"/></g></svg>