<svg xmlns="http://www.w3.org/2000/svg" width="11.364" height="10.127" viewBox="0 0 11.364 10.127">
  <g id="chevron-double-up" transform="translate(0 0)">
    <path id="Path_1811" data-name="Path 1811" d="M0,6.512a.706.706,0,0,1,.208-.5L3.841,2.376a2.6,2.6,0,0,1,3.683,0l3.633,3.635a.71.71,0,0,1-1,1L6.519,3.38a1.184,1.184,0,0,0-1.674,0h0L1.213,7.013A.71.71,0,0,1,0,6.512Z" transform="translate(0 -1.613)" fill="#e99114"/>
    <path id="Path_1812" data-name="Path 1812" d="M0,15.623a.71.71,0,0,1,.208-.5l4.3-4.3a1.66,1.66,0,0,1,2.344,0l4.3,4.3a.71.71,0,0,1-1,1l-4.3-4.3a.237.237,0,0,0-.335,0h0l-4.3,4.3A.71.71,0,0,1,0,15.623Z" transform="translate(0 -6.206)" fill="#e99114"/>
  </g>
</svg>
