<svg xmlns="http://www.w3.org/2000/svg" width="12.494" height="14.992" viewBox="0 0 12.494 14.992">
  <path id="file-invoice" d="M13.213,3.459,11.036,1.282A4.344,4.344,0,0,0,7.944,0H5.123A3.126,3.126,0,0,0,2,3.124V11.87a3.127,3.127,0,0,0,3.123,3.123H11.37a3.127,3.127,0,0,0,3.123-3.123V6.55a4.345,4.345,0,0,0-1.281-3.092Zm-.883.883a3.143,3.143,0,0,1,.5.656H10.121A.626.626,0,0,1,9.5,4.373V1.661a3.127,3.127,0,0,1,.656.5l2.177,2.177Zm.915,7.528a1.876,1.876,0,0,1-1.874,1.874H5.123A1.876,1.876,0,0,1,3.249,11.87V3.124A1.876,1.876,0,0,1,5.123,1.25h2.82c.1,0,.2,0,.3.014V4.373a1.876,1.876,0,0,0,1.874,1.874H13.23c.009.1.014.2.014.3V11.87ZM10.433,8.121H6.061A1.564,1.564,0,0,0,4.5,9.683v1.249a1.564,1.564,0,0,0,1.562,1.562h4.373A1.564,1.564,0,0,0,12,10.932V9.683A1.564,1.564,0,0,0,10.433,8.121Zm.312,2.811a.312.312,0,0,1-.312.312H6.061a.312.312,0,0,1-.312-.312V9.683a.312.312,0,0,1,.312-.312h4.373a.312.312,0,0,1,.312.312ZM4.5,6.247a.625.625,0,0,1,.625-.625H6.373a.625.625,0,1,1,0,1.249H5.123A.625.625,0,0,1,4.5,6.247Zm0-2.5a.625.625,0,0,1,.625-.625H6.373a.625.625,0,1,1,0,1.249H5.123A.625.625,0,0,1,4.5,3.749Z" transform="translate(-2 -0.001)" fill="#333"/>
</svg>
