<svg id="Group_686" data-name="Group 686" xmlns="http://www.w3.org/2000/svg" width="14.662" height="14.709" viewBox="0 0 14.662 14.709">
  <path id="Path_1787" data-name="Path 1787" d="M488.721,57.957a1.506,1.506,0,0,1-.465,1.112c-.789.78-1.576,1.563-2.351,2.358-.193.2-.312.187-.5,0-.786-.8-1.587-1.588-2.377-2.387a1.644,1.644,0,0,1-.2-1.947,1.666,1.666,0,0,1,1.683-.627,1.457,1.457,0,0,1,.78.419c.195.194.352.292.636.047a1.655,1.655,0,0,1,1.613-.462A1.455,1.455,0,0,1,488.721,57.957Z" transform="translate(-478.325 -51.298)" fill="#3e85f4"/>
  <path id="Path_1788" data-name="Path 1788" d="M518.128,100.1c0-.219.007-.438,0-.657s.034-.4.31-.43.587.053.6.331a5.161,5.161,0,0,1-.234,2.556,2.652,2.652,0,0,1-2.662,1.685c-.039,0-.077,0-.116,0-.217.006-.482-.061-.637.041s-.032.381-.054.581c-.054.471-.388.678-.789.455-.6-.333-1.192-.678-1.768-1.05-.5-.323-.358-.745.061-.962.55-.286,1.077-.619,1.612-.934.51-.3.9-.12.869.455-.028.466.161.475.537.5a1.943,1.943,0,0,0,2.119-1.223A3.193,3.193,0,0,0,518.128,100.1Z" transform="translate(-505.48 -90.042)" fill="#3e85f4"/>
  <path id="Path_1789" data-name="Path 1789" d="M439.635,84.2a2.691,2.691,0,0,1-1.879-.471,2.617,2.617,0,0,1-1.178-2.087c0-.129,0-.258-.007-.387-.005-.244.076-.549-.041-.714-.13-.184-.455-.043-.694-.067a.461.461,0,0,1-.365-.7c.344-.637.708-1.264,1.1-1.871a.528.528,0,0,1,.9.08c.309.6.691,1.156,1.018,1.745.237.427.032.745-.454.748-.129,0-.258,0-.387,0-.093,0-.146.031-.14.131.034.635-.134,1.3.305,1.873a1.711,1.711,0,0,0,1.423.79q.678-.007,1.354,0c.381.006.567.165.556.469-.013.365-.241.47-.567.461C440.311,84.2,440.041,84.2,439.635,84.2Z" transform="translate(-435.405 -70.651)" fill="#3e85f4"/>
  <path id="Path_1790" data-name="Path 1790" d="M535.307,12.539a3.249,3.249,0,0,1,2.1.54,2.826,2.826,0,0,1,1.193,2.24c.006.09,0,.18,0,.271,0,.624,0,.624.6.675.415.036.616.343.417.715-.342.637-.7,1.268-1.1,1.87-.283.426-.609.369-.868-.082-.323-.562-.665-1.115-.985-1.679-.292-.513-.112-.817.473-.823.535-.005.532-.005.535-.55a2.241,2.241,0,0,0-.578-1.7,1.881,1.881,0,0,0-1.283-.547c-.437-.024-.876,0-1.316-.006-.326,0-.541-.143-.538-.494,0-.334.265-.4.522-.428S535,12.539,535.307,12.539Z" transform="translate(-525.036 -11.397)" fill="#3e85f4"/>
  <path id="Path_1791" data-name="Path 1791" d="M448.271,4.373A3.131,3.131,0,0,1,448.7,2.38a2.884,2.884,0,0,1,2.222-1.236c.077-.006.155,0,.232,0,.258,0,.574.088.759-.029.21-.133.052-.474.083-.723a.436.436,0,0,1,.643-.333c.648.371,1.294.75,1.923,1.152a.438.438,0,0,1-.028.794c-.578.369-1.159.733-1.75,1.08-.486.285-.787.1-.788-.463,0-.539,0-.539-.545-.54a2.474,2.474,0,0,0-1.507.371,1.566,1.566,0,0,0-.737,1.317c-.01.452-.011.9-.006,1.355a.722.722,0,0,1-.132.464.41.41,0,0,1-.493.2.458.458,0,0,1-.307-.444C448.278,5.017,448.27,4.7,448.271,4.373Z" transform="translate(-447.104 0)" fill="#3e85f4"/>
</svg>
