<svg xmlns="http://www.w3.org/2000/svg" xmlns:xlink="http://www.w3.org/1999/xlink" width="62" height="62" viewBox="0 0 62 62">
  <defs>
    <filter id="Rectangle_2903" x="0" y="0" width="62" height="62" filterUnits="userSpaceOnUse">
      <feOffset dy="3" input="SourceAlpha"/>
      <feGaussianBlur stdDeviation="3" result="blur"/>
      <feFlood flood-color="#0b426d" flood-opacity="0.161"/>
      <feComposite operator="in" in2="blur"/>
      <feComposite in="SourceGraphic"/>
    </filter>
  </defs>
  <g id="Group_697" data-name="Group 697" transform="translate(-999.862 -563.9)">
    <g transform="matrix(1, 0, 0, 1, 999.86, 563.9)" filter="url(#Rectangle_2903)">
      <rect id="Rectangle_2903-2" data-name="Rectangle 2903" width="44" height="44" rx="9" transform="translate(9 6)" fill="#e49d22" opacity="0.13"/>
    </g>
    <path id="funnel-dollar" d="M8,5a3,3,0,0,1,3-3V1a1,1,0,0,1,2,0V2h.268a3.01,3.01,0,0,1,2.6,1.5,1,1,0,0,1-1.73,1,1,1,0,0,0-.867-.5H11a1,1,0,0,0-1,1,.769.769,0,0,0,.645.761l3.04.506A2.763,2.763,0,0,1,16,9a3,3,0,0,1-3,3v1a1,1,0,0,1-2,0V12h-.268a3.01,3.01,0,0,1-2.6-1.5,1,1,0,0,1,1.73-1,1,1,0,0,0,.867.5H13a1,1,0,0,0,1-1,.769.769,0,0,0-.645-.761l-3.04-.506A2.763,2.763,0,0,1,8,5ZM19.1,3H19a1,1,0,0,0,0,2h.1a1.9,1.9,0,0,1,1.419,3.159l-7.268,8.177A1,1,0,0,0,13,17v4l-2-1.5V17a1,1,0,0,0-.253-.664L3.479,8.158A1.9,1.9,0,0,1,4.9,5H5A1,1,0,0,0,5,3H4.9A3.9,3.9,0,0,0,1.985,9.487L9,17.38V20a1,1,0,0,0,.4.8l4,3a1,1,0,0,0,.6.2,1,1,0,0,0,1-1V17.38l7.015-7.892A3.9,3.9,0,0,0,19.1,3Z" transform="translate(1019.862 578.859)" fill="#e49d22"/>
  </g>
</svg>
