<svg xmlns="http://www.w3.org/2000/svg" xmlns:xlink="http://www.w3.org/1999/xlink" width="62" height="62" viewBox="0 0 62 62">
  <defs>
    <filter id="Rectangle_2898" x="0" y="0" width="62" height="62" filterUnits="userSpaceOnUse">
      <feOffset dy="3" input="SourceAlpha"/>
      <feGaussianBlur stdDeviation="3" result="blur"/>
      <feFlood flood-color="#0b426d" flood-opacity="0.161"/>
      <feComposite operator="in" in2="blur"/>
      <feComposite in="SourceGraphic"/>
    </filter>
  </defs>
  <g id="Group_693" data-name="Group 693" transform="translate(-999.862 -314.482)">
    <g transform="matrix(1, 0, 0, 1, 999.86, 314.48)" filter="url(#Rectangle_2898)">
      <rect id="Rectangle_2898-2" data-name="Rectangle 2898" width="44" height="44" rx="9" transform="translate(9 6)" fill="#e49d22" opacity="0.13"/>
    </g>
    <path id="people-poll" d="M19.325,13.8H11.043a2.764,2.764,0,0,0-2.761,2.761v.92a2.764,2.764,0,0,0,2.761,2.761h8.282a2.764,2.764,0,0,0,2.761-2.761v-.92A2.764,2.764,0,0,0,19.325,13.8Zm.92,3.681a.921.921,0,0,1-.92.92h-4.6V15.644h4.6a.921.921,0,0,1,.92.92ZM19.325,1.84H11.043A2.764,2.764,0,0,0,8.282,4.6v.92a2.764,2.764,0,0,0,2.761,2.761h8.282a2.764,2.764,0,0,0,2.761-2.761V4.6A2.764,2.764,0,0,0,19.325,1.84Zm.92,3.681a.921.921,0,0,1-.92.92h-1.84V3.681h1.84a.921.921,0,0,1,.92.92Zm-16.564,0A2.761,2.761,0,1,0,.92,2.761,2.764,2.764,0,0,0,3.681,5.521ZM7.362,9.2v.92H0V9.2A2.764,2.764,0,0,1,2.761,6.442H4.6A2.764,2.764,0,0,1,7.362,9.2Zm-.92,5.521a2.761,2.761,0,1,0-2.761,2.761A2.764,2.764,0,0,0,6.442,14.724Zm.92,6.442v.92H0v-.92A2.764,2.764,0,0,1,2.761,18.4H4.6A2.764,2.764,0,0,1,7.362,21.166Z" transform="translate(1020.819 331.351)" fill="#e49d22"/>
  </g>
</svg>
