<svg xmlns="http://www.w3.org/2000/svg" width="29.9" height="30.163" viewBox="0 0 29.9 30.163">
  <g id="Group_692" data-name="Group 692" transform="translate(-606.72 -251.333)">
    <rect id="Rectangle_2818" data-name="Rectangle 2818" width="29.9" height="30.163" rx="8" transform="translate(606.72 251.333)" fill="#a054b2" opacity="0.23"/>
    <path id="sack-dollar" d="M16.83,13.011a4.475,4.475,0,0,1-2.84,4.182,1.079,1.079,0,0,1-.8-2.007,2.327,2.327,0,0,0,1.477-2.174c0-3.323-3.12-7.255-5.756-7.255S3.159,9.688,3.159,13.011a2.326,2.326,0,0,0,1.477,2.174,1.079,1.079,0,0,1-.8,2.007A4.475,4.475,0,0,1,1,13.01c0-3.731,3.014-8.365,6.668-9.26A6.169,6.169,0,0,1,5.377,1.2.893.893,0,0,1,6.225,0H11.6a.892.892,0,0,1,.848,1.2,6.169,6.169,0,0,1-2.292,2.554c3.654.894,6.669,5.528,6.669,9.26Zm-6.659-1.439-1.71-.684a.422.422,0,0,1,.157-.815h.85a.358.358,0,0,1,.312.181,1.079,1.079,0,0,0,1.868-1.081,2.528,2.528,0,0,0-1.7-1.212,1.079,1.079,0,0,0-2.084.065,2.581,2.581,0,0,0-.205,4.865l1.71.684a.422.422,0,0,1-.157.815h-.85a.358.358,0,0,1-.312-.18,1.079,1.079,0,1,0-1.868,1.081,2.525,2.525,0,0,0,1.7,1.211,1.079,1.079,0,0,0,2.084-.065,2.581,2.581,0,0,0,.205-4.865Z" transform="translate(612.754 257.78)" fill="#0090b2"/>
  </g>
</svg>
