<svg xmlns="http://www.w3.org/2000/svg" xmlns:xlink="http://www.w3.org/1999/xlink" width="62" height="62" viewBox="0 0 62 62">
  <defs>
    <filter id="Rectangle_2902" x="0" y="0" width="62" height="62" filterUnits="userSpaceOnUse">
      <feOffset dy="3" input="SourceAlpha"/>
      <feGaussianBlur stdDeviation="3" result="blur"/>
      <feFlood flood-color="#0b426d" flood-opacity="0.161"/>
      <feComposite operator="in" in2="blur"/>
      <feComposite in="SourceGraphic"/>
    </filter>
  </defs>
  <g id="Group_696" data-name="Group 696" transform="translate(-999.862 -624.646)">
    <g transform="matrix(1, 0, 0, 1, 999.86, 624.65)" filter="url(#Rectangle_2902)">
      <rect id="Rectangle_2902-2" data-name="Rectangle 2902" width="44" height="44" rx="9" transform="translate(9 6)" fill="#015a87" opacity="0.13"/>
    </g>
    <path id="comments-dollar" d="M24,16v5a3,3,0,0,1-3,3H16a8,8,0,0,1-6.92-4,10.968,10.968,0,0,0,2.242-.248A5.988,5.988,0,0,0,16,22h5a1,1,0,0,0,1-1V16a5.988,5.988,0,0,0-2.252-4.678A11.038,11.038,0,0,0,20,9.08,8,8,0,0,1,24,16ZM8.7,18H3c-1.493,0-3-1.134-3-3.666V9.294A9.417,9.417,0,0,1,8.349.023a9,9,0,0,1,9.628,9.628A9.419,9.419,0,0,1,8.7,18Zm0-2c.071,0,.143,0,.214,0A1,1,0,0,1,8,15V14H7.732a3.009,3.009,0,0,1-2.6-1.5,1,1,0,0,1,1.731-1,1,1,0,0,0,.867.5H10a1,1,0,0,0,1-1,.768.768,0,0,0-.644-.76L7.314,9.733A2.762,2.762,0,0,1,5,7,3,3,0,0,1,8,4V3a1,1,0,0,1,.976-1c-.162,0-.323.006-.486.017A7.362,7.362,0,0,0,2,9.294v5.04C2,14.725,2.071,16,3,16H8.7Zm7.279-6.49A7,7,0,0,0,9.05,2,1,1,0,0,1,10,3V4h.268a3.011,3.011,0,0,1,2.6,1.5,1,1,0,1,1-1.731,1,1,1,0,0,0-.867-.5H8A1,1,0,0,0,7,7a.768.768,0,0,0,.644.76l3.042.507A2.762,2.762,0,0,1,13,11a3,3,0,0,1-3,3v1a1,1,0,0,1-.817.983,7.356,7.356,0,0,0,6.8-6.473Z" transform="translate(1019.862 640.645)" fill="#045b88"/>
  </g>
</svg>
