<svg xmlns="http://www.w3.org/2000/svg" width="23" height="23" viewBox="0 0 23 23">
  <g id="Group_688" data-name="Group 688" transform="translate(-1050 -449)">
    <rect id="Rectangle_3151" data-name="Rectangle 3151" width="23" height="23" rx="3" transform="translate(1050 449)" fill="#045b88"/>
    <path id="play_1_" data-name="play (1)" d="M13.9,4.965,7.955.6A3.115,3.115,0,0,0,3,3.116v8.722a3.115,3.115,0,0,0,4.957,2.511L13.9,9.988a3.115,3.115,0,0,0,0-5.024Zm-.738,4.018L7.218,13.344a1.869,1.869,0,0,1-2.972-1.506V3.116A1.837,1.837,0,0,1,5.268,1.451a1.88,1.88,0,0,1,.85-.2,1.85,1.85,0,0,1,1.1.367l5.943,4.361a1.869,1.869,0,0,1,0,3.013Z" transform="translate(1052.914 453.044)" fill="#fff"/>
  </g>
</svg>
