<svg xmlns="http://www.w3.org/2000/svg" xmlns:xlink="http://www.w3.org/1999/xlink" width="62" height="62" viewBox="0 0 62 62">
  <defs>
    <filter id="Rectangle_2899" x="0" y="0" width="62" height="62" filterUnits="userSpaceOnUse">
      <feOffset dy="3" input="SourceAlpha"/>
      <feGaussianBlur stdDeviation="3" result="blur"/>
      <feFlood flood-color="#0b426d" flood-opacity="0.161"/>
      <feComposite operator="in" in2="blur"/>
      <feComposite in="SourceGraphic"/>
    </filter>
  </defs>
  <g id="Group_695" data-name="Group 695" transform="translate(-999.862 -435.128)">
    <g transform="matrix(1, 0, 0, 1, 999.86, 435.13)" filter="url(#Rectangle_2899)">
      <rect id="Rectangle_2899-2" data-name="Rectangle 2899" width="44" height="44" rx="9" transform="translate(9 6)" fill="#20c799" opacity="0.13"/>
    </g>
    <g id="stats" transform="translate(1020.542 451.073)">
      <path id="Path_1743" data-name="Path 1743" d="M5.189,19.811A2.358,2.358,0,0,1,2.83,17.453V1.415A1.415,1.415,0,0,0,1.415,0h0A1.415,1.415,0,0,0,0,1.415V17.453a5.189,5.189,0,0,0,5.189,5.189H21.227a1.415,1.415,0,0,0,1.415-1.415h0a1.415,1.415,0,0,0-1.415-1.415Z" fill="#20c799"/>
      <path id="Path_1744" data-name="Path 1744" d="M19.415,17.491a1.415,1.415,0,0,0,1.415-1.415v-5.66a1.415,1.415,0,0,0-2.83,0v5.66A1.415,1.415,0,0,0,19.415,17.491Z" transform="translate(-1.019 -0.509)" fill="#20c799"/>
      <path id="Path_1745" data-name="Path 1745" d="M7.415,17.491A1.415,1.415,0,0,0,8.83,16.076v-5.66a1.415,1.415,0,0,0-2.83,0v5.66A1.415,1.415,0,0,0,7.415,17.491Z" transform="translate(-0.34 -0.509)" fill="#20c799"/>
      <path id="Path_1746" data-name="Path 1746" d="M13.415,17.208a1.415,1.415,0,0,0,1.415-1.415V5.415a1.415,1.415,0,1,0-2.83,0V15.793A1.415,1.415,0,0,0,13.415,17.208Z" transform="translate(-0.679 -0.226)" fill="#20c799"/>
    </g>
  </g>
</svg>
