<svg id="Group_684" data-name="Group 684" xmlns="http://www.w3.org/2000/svg" width="14.285" height="12.955" viewBox="0 0 14.285 12.955">
  <path id="Path_1792" data-name="Path 1792" d="M735.372,50.051V50c-.068.069-.068-.005-.08-.04a.892.892,0,0,0-.178-.314.923.923,0,0,0-.713-.273c-.769,0-1.539,0-2.308,0-.1,0-.119-.027-.12-.122-.01-.586.036-1.174-.028-1.759l-.055-.167a.837.837,0,0,0-.777-.442.408.408,0,0,0-.252.048l-.054.008a1.19,1.19,0,0,0-.239.142c-.223.214-.436.438-.653.658-.034.031-.069.06-.1.092l-2.676,2.67a1.722,1.722,0,0,0-.123.249.929.929,0,0,0-.021.556c.054.08.068.183.142.251.038.045.073.091.113.133l1.86,1.86q-1.137,1.135-2.271,2.27c-.045.045-.083.095-.124.143a.621.621,0,0,0-.12.218.782.782,0,0,0,0,.585.608.608,0,0,0,.12.218l.083.113c.081.014.119.1.193.12a.761.761,0,0,0,.979-.17c.972-.956,1.93-1.927,2.9-2.889a.854.854,0,0,0,0-1.217c-.636-.629-1.267-1.264-1.855-1.851l1.292-1.292c0,.146,0,.331,0,.516a.574.574,0,0,0,.164.383c.04.142.176.165.28.229.019-.006.026,0,.019.019.018.04.063.031.092.052a.655.655,0,0,0,.327.05c1.094-.005,2.188-.008,3.281,0a.842.842,0,0,0,.623-.26.737.737,0,0,0,.227-.657C735.317,50.107,735.268,50.014,735.372,50.051Z" transform="translate(-721.086 -44.367)" fill="#32a953"/>
  <path id="Path_1793" data-name="Path 1793" d="M667.04,52.286a.428.428,0,0,0,.183-.018l.165-.109a.474.474,0,0,0,0-.583l-.193-.117c-.212,0-.424-.011-.636-.009-.577.007-1.154-.022-1.731.017l-.194.113c-.034.04-.037.1-.085.134v.306l.115.165c.066.01.1.068.164.09a.189.189,0,0,0,.062.021C665.608,52.269,666.324,52.292,667.04,52.286Z" transform="translate(-664.55 -48.535)" fill="#32a953"/>
  <path id="Path_1794" data-name="Path 1794" d="M675.178,100.838c.029-.013.037-.031.01-.054-.164-.2-.385-.349-.541-.56a1.071,1.071,0,0,1-.308-.419.482.482,0,0,1-.1-.251c-.03-.054-.066-.074-.117-.025-.031.034-.06.069-.092.1q-1.333,1.334-2.668,2.667-.816.816-1.635,1.63a1.723,1.723,0,0,0-.123.249.782.782,0,0,0,0,.585,1.92,1.92,0,0,0,.123.249l.079.083c.081.014.119.1.193.12.042,0,.067.038.1.053a.783.783,0,0,0,.675-.062c.052-.018.073-.086.137-.083.034-.037.067-.076.1-.112l4.07-4.071C675.119,100.907,675.148,100.872,675.178,100.838Z" transform="translate(-669.106 -92.366)" fill="#32a953"/>
  <path id="Path_1795" data-name="Path 1795" d="M712.861,29.546a.8.8,0,0,0,.646-.068c.052-.018.073-.086.137-.083q.879-.9,1.784-1.784a.09.09,0,0,1,.147-.031c.146.1.29.211.435.317.088.063.149.039.224-.039.246-.255.5-.5.753-.749a.766.766,0,0,1,.363-.241c.059-.032.061-.063,0-.095a1.236,1.236,0,0,1-.252-.185.2.2,0,0,1-.111-.058l-.251-.193a.19.19,0,0,1-.11-.058l-.251-.193a.247.247,0,0,1-.128-.068l-.235-.184a.187.187,0,0,1-.11-.058l-.2-.111a1.558,1.558,0,0,0-.612-.005l-.164.088c-.02.059-.084.063-.124.1-.762.767-1.534,1.523-2.288,2.3A.841.841,0,0,0,712.861,29.546Z" transform="translate(-708.077 -24.993)" fill="#32a953"/>
  <path id="Path_1796" data-name="Path 1796" d="M778.92,19.925c.015.056.029.113.044.17.047.021.044.067.049.107a.867.867,0,0,1,.168.222c.038.028.083.052.081.11.136.016.207.145.331.185a1.261,1.261,0,0,0,.224.073,1,1,0,0,0,.613,0,3.094,3.094,0,0,0,.527-.26c.013-.084.086-.116.14-.165a.282.282,0,0,1,.139-.169l.008-.052a.7.7,0,0,1,.083-.222,1.834,1.834,0,0,0,0-.668l-.094-.25a.176.176,0,0,1-.058-.111c-.038-.029-.082-.054-.08-.111a1.126,1.126,0,0,1-.2-.2,2.828,2.828,0,0,0-.469-.229.375.375,0,0,1-.108,0,1.163,1.163,0,0,0-.5,0,1.593,1.593,0,0,0-.544.28l-.093.09a.846.846,0,0,1-.168.222c0,.042,0,.086-.05.108l-.043.17a.318.318,0,0,0-.026.294.1.1,0,0,1,0,.079A.372.372,0,0,0,778.92,19.925Z" transform="translate(-768.818 -18.333)" fill="#32a953"/>
  <path id="Path_1797" data-name="Path 1797" d="M674.266,33.281c.127,0,.253.011.38.009.672-.009,1.343.022,2.014-.017l.17-.135a.435.435,0,0,0,0-.529c-.065-.025-.087-.112-.167-.116a.824.824,0,0,0-.352-.037c-.68.009-1.362-.022-2.042.017l-.164.083c-.039.1-.122.175-.122.305a.659.659,0,0,0,.122.332C674.171,33.2,674.206,33.259,674.266,33.281Z" transform="translate(-673.151 -31.211)" fill="#32a953"/>
  <path id="Path_1798" data-name="Path 1798" d="M676.645,70.465q-1.2-.041-2.393,0c-.062.014-.1.077-.164.083a.473.473,0,0,0,0,.637c.066.01.1.068.164.09a.189.189,0,0,0,.062.021c.716-.027,1.433,0,2.149-.011a.442.442,0,0,0,.183-.018l.2-.138a.494.494,0,0,0-.025-.525C676.759,70.557,676.7,70.511,676.645,70.465Z" transform="translate(-673.136 -65.863)" fill="#32a953"/>
</svg>
