<svg xmlns="http://www.w3.org/2000/svg" width="12.237" height="12.245" viewBox="0 0 12.237 12.245">
  <g id="Group_685" data-name="Group 685" transform="translate(-192.85 -1.7)">
    <path id="Path_1783" data-name="Path 1783" d="M236.206,3.278a.094.094,0,0,1,.024-.1,2.939,2.939,0,0,0,.024-.43.322.322,0,0,0-.276-.314.144.144,0,0,1-.038-.024c-.341,0-.683,0-1.024.005-.067,0-.077-.024-.077-.082a.864.864,0,0,0-.071-.491L234.72,1.8l-.048-.047a.131.131,0,0,1-.094-.052H231.52c-.02.042-.07.017-.1.044a.368.368,0,0,0-.171.291c0,.1,0,.206,0,.308,0,.052-.008.077-.069.076-.343,0-.688,0-1.031,0a.356.356,0,0,0-.339.339,2.086,2.086,0,0,0,.024.382l.031.167a1.087,1.087,0,0,1,.07.237,1.567,1.567,0,0,1,.162.314l.054.071a4.453,4.453,0,0,0,.451.5c.056.065.181.055.24.139a.319.319,0,0,1,.143.072.52.52,0,0,1,.2.077l.447.1a.425.425,0,0,1,.31.1,1.931,1.931,0,0,0,.431.263,1.44,1.44,0,0,0,.23.064c.072.009.081.044.081.1,0,.2,0,.406,0,.609,0,.056-.005.084-.075.083-.342-.005-.684,0-1.025-.005a.355.355,0,0,0-.338.339v.048a.358.358,0,0,0,.338.338c.123,0,.279-.045.359.015s.022.223.022.34.054.285-.022.34-.236.014-.359.015a.355.355,0,0,0-.338.339v.048c0,.031,0,.063.006.095.028.005.02.03.025.048.026.006.021.027.022.045l.1.1c.018,0,.04,0,.046.023l.047.006.1.023c.044,0,.088,0,.131,0h2.731a.29.29,0,0,0,.137-.017.375.375,0,0,0,.2-.528l-.1-.1-.047-.031c-.016,0-.023-.005-.027-.019a1.636,1.636,0,0,0-.433-.023c-.066,0-.067-.03-.066-.079,0-.182.005-.365,0-.546,0-.081.025-.095.1-.1.161,0,.331.041.476-.072l.1-.1a.468.468,0,0,0,0-.375l-.1-.1-.047-.031c-.016,0-.023-.005-.027-.019a2.8,2.8,0,0,0-.555-.025c-.195,0-.39,0-.585,0-.052,0-.078-.005-.077-.069,0-.211,0-.422,0-.633,0-.049.01-.076.067-.09a1.858,1.858,0,0,0,.717-.38c0-.013.01-.025.028-.02a4.609,4.609,0,0,0,.666-.125l.218-.091A2.1,2.1,0,0,0,236.206,3.278Zm-4.913.664c-.021.016-.048,0-.074-.016a1.293,1.293,0,0,1-.634-.792c.212,0,.414,0,.615,0,.051,0,.058.022.057.064,0,.115,0,.23,0,.345a.894.894,0,0,0,.044.321C231.309,3.892,231.316,3.925,231.293,3.943Zm3.809-.181c-.017-.005-.022.005-.026.019-.08.052-.158.108-.24.156-.023.014-.077.04-.06-.033a2.506,2.506,0,0,0,.062-.687c0-.07.022-.084.087-.084.186,0,.373,0,.576,0A1.313,1.313,0,0,1,235.1,3.761Z" transform="translate(-34.078 0)" fill="#045b88"/>
    <path id="Path_1784" data-name="Path 1784" d="M306.726,121.477c.011-.044-.027-.075-.028-.116a.474.474,0,0,0-.368-.17q-1.541,0-3.082,0c-.091,0-.109.023-.109.111,0,.868,0,1.737,0,2.605,0,.179,0,.178.18.179l3.094,0a.5.5,0,0,0,.283-.172.069.069,0,0,1,.052-.07v-2.367A.043.043,0,0,1,306.726,121.477Z" transform="translate(-101.663 -110.144)" fill="#045b88"/>
    <path id="Path_1785" data-name="Path 1785" d="M251.73,94c-.042-.055-.03-.131-.079-.186a.488.488,0,0,0-.236-.145c-.056,0-.111,0-.167,0l-2.771,0-.07.006c-.014.038-.049.015-.072.023-.005.027-.028.02-.046.023l-.1.1c0,.018,0,.039-.022.045,0,.018,0,.042-.024.048,0,.031,0,.063-.006.095s0,.088,0,.131q0,2.235,0,4.471c0,.089.02.11.109.11q1.685,0,3.369,0c.089,0,.11-.021.109-.11q0-2.063,0-4.125C251.727,94.317,251.729,94.157,251.73,94Zm-1.439,2.891a.729.729,0,0,1-.047.189l-.1.1a.444.444,0,0,1-.332.072c-.006-.027-.031-.019-.048-.023-.005-.027-.028-.02-.046-.023a.15.15,0,0,1-.047,0,.15.15,0,0,0,.047,0l-.1-.1c0-.019,0-.039-.023-.045-.005-.017,0-.041-.023-.048,0-.513,0-1.026,0-1.539a.318.318,0,0,1,.165-.309.351.351,0,0,1,.529.24C250.324,95.9,250.281,96.394,250.291,96.89Z" transform="translate(-50.965 -84.767)" fill="#045b88"/>
    <path id="Path_1786" data-name="Path 1786" d="M196.443,111.906c-.052-.063-.186-.018-.284-.019l-2.971,0-.07.006c-.022.038-.07.015-.1.041a.052.052,0,0,1-.021,0,.483.483,0,0,0-.149.4c.009.426,0,.851,0,1.277q0,.811,0,1.622a.428.428,0,0,0,.291.267c.027,0,.056,0,.083,0,1.038,0,2.076,0,3.115,0,.109,0,.127-.031.126-.131,0-1.059,0-2.117,0-3.176C196.461,112.094,196.493,111.965,196.443,111.906Z" transform="translate(0 -101.555)" fill="#045b88"/>
  </g>
</svg>
