<svg xmlns="http://www.w3.org/2000/svg" width="17.543" height="17.546" viewBox="0 0 17.543 17.546">
  <path id="hand-holding-heart" d="M6.554,17.546H2.924A2.924,2.924,0,0,1,0,14.622V10.966A2.924,2.924,0,0,1,2.924,8.042H9.4a2.3,2.3,0,0,1,1.967,1.111l2.352-2.584a2.2,2.2,0,0,1,3.269,2.946L12.016,15.1a7.32,7.32,0,0,1-5.461,2.448ZM2.924,9.5a1.462,1.462,0,0,0-1.462,1.462v3.655a1.462,1.462,0,0,0,1.462,1.462h3.63a5.852,5.852,0,0,0,4.366-1.958L15.9,8.542A.742.742,0,0,0,15.843,7.5a.752.752,0,0,0-.532-.192.731.731,0,0,0-.512.241l-3.236,3.561a2.309,2.309,0,0,1-1.839,1.5l-3.773.54A.731.731,0,1,1,5.743,11.7l3.774-.539A.835.835,0,0,0,9.4,9.5Zm5.118-2.87a1.452,1.452,0,0,1-.912-.319c-1.252-1-2.744-2.513-2.744-3.976A2.273,2.273,0,0,1,6.58,0,2.108,2.108,0,0,1,8.042.6,2.108,2.108,0,0,1,9.5,0,2.273,2.273,0,0,1,11.7,2.339c0,1.462-1.492,2.971-2.745,3.976A1.452,1.452,0,0,1,8.042,6.634ZM6.58,1.462a.815.815,0,0,0-.731.877c0,.658.841,1.747,2.2,2.836C9.394,4.087,10.235,3,10.235,2.339A.815.815,0,0,0,9.5,1.462a.815.815,0,0,0-.731.877.731.731,0,0,1-1.462,0A.815.815,0,0,0,6.58,1.462Z" fill="#045b88"/>
</svg>
