<svg id="home" xmlns="http://www.w3.org/2000/svg" width="12.333" height="12.325" viewBox="0 0 12.333 12.325">
  <path id="Path_1726" data-name="Path 1726" d="M193.542,319.841A1.542,1.542,0,0,0,192,321.383v3.083h3.083v-3.083A1.542,1.542,0,0,0,193.542,319.841Z" transform="translate(-187.375 -312.141)" fill="#666"/>
  <g id="Group_669" data-name="Group 669">
    <path id="Path_1727" data-name="Path 1727" d="M8.736,9.4v3.083h2.055a1.542,1.542,0,0,0,1.542-1.542V6.256a1.028,1.028,0,0,0-.289-.715L7.677.82a2.055,2.055,0,0,0-2.9-.114Q4.713.761,4.658.82L.3,5.539a1.028,1.028,0,0,0-.3.725v4.679a1.542,1.542,0,0,0,1.542,1.542H3.6V9.4a2.569,2.569,0,1,1,5.139,0Z" transform="translate(0 -0.16)" fill="#666"/>
    <path id="Path_1728" data-name="Path 1728" d="M193.542,319.841A1.542,1.542,0,0,0,192,321.383v3.083h3.083v-3.083A1.542,1.542,0,0,0,193.542,319.841Z" transform="translate(-187.375 -312.141)" fill="#666"/>
  </g>
</svg>
