<svg xmlns="http://www.w3.org/2000/svg" width="18.965" height="18.963" viewBox="0 0 18.965 18.963">
  <g id="interactive" transform="translate(0 0)">
    <path id="Path_1733" data-name="Path 1733" d="M21.183,20.067l-.851-.851-1.367-1.365,2.2-2.2a.79.79,0,0,0-.288-1.3l-7.087-2.571A1.58,1.58,0,0,0,11.769,13.8l2.578,7.087a.79.79,0,0,0,1.3.289l2.2-2.208,1.365,1.365.851.851a.79.79,0,1,0,1.117-1.117Zm-5.774-.891-2.153-5.919,5.919,2.153Z" transform="translate(-2.449 -2.451)" fill="#045b88"/>
    <path id="Path_1734" data-name="Path 1734" d="M7.9,15.8a7.9,7.9,0,1,1,7.9-7.9.79.79,0,1,1-1.58,0A6.322,6.322,0,1,0,7.9,14.224a.79.79,0,1,1,0,1.58Z" transform="translate(0 0)" fill="#045b88"/>
    <path id="Path_1735" data-name="Path 1735" d="M7.228,13.183a.79.79,0,0,1-.3-.06,4.741,4.741,0,1,1,6.2-6.191.79.79,0,1,1-1.46.6,3.161,3.161,0,1,0-4.134,4.13.79.79,0,0,1-.3,1.52Z" transform="translate(-0.84 -0.84)" fill="#045b88"/>
  </g>
</svg>
