<svg xmlns="http://www.w3.org/2000/svg" width="14.797" height="14.799" viewBox="0 0 14.797 14.799">
  <path id="layer-plus" d="M0,4.456a.615.615,0,0,1,.3-.528L6.379.28a1.975,1.975,0,0,1,2.039,0L14.5,3.928a.616.616,0,0,1,0,1.057L8.418,8.632a1.977,1.977,0,0,1-2.038,0L.3,4.985A.616.616,0,0,1,0,4.457Zm14.18,7.256H12.947V10.479a.617.617,0,0,0-1.233,0v1.233H10.481a.617.617,0,0,0,0,1.233h1.233v1.233a.617.617,0,0,0,1.233,0V12.945H14.18a.617.617,0,0,0,0-1.233Zm-6.464,1.8L.934,9.44A.617.617,0,0,0,.3,10.5l6.782,4.069a.616.616,0,1,0,.634-1.057Zm6.147-6.885L7.4,10.5.934,6.624A.617.617,0,0,0,.3,7.682l6.782,4.069a.616.616,0,0,0,.635,0L14.5,7.682a.617.617,0,1,0-.634-1.057Z" transform="translate(0 0.004)" fill="#666"/>
</svg>
