<svg xmlns="http://www.w3.org/2000/svg" width="16.005" height="16.028" viewBox="0 0 16.005 16.028">
  <path id="Path_1799" data-name="Path 1799" d="M15.719,16.249a6.447,6.447,0,0,0-.947-.771c-.267-.2-.282-.348-.187-.672a8.931,8.931,0,0,0,.467-1.406.885.885,0,0,0-.5-.836,3.4,3.4,0,0,0-.94-.193,2.407,2.407,0,0,1-.746-.163c-.16-.067-.171-.223-.22-.351a3.212,3.212,0,0,1-.1-.684,2.4,2.4,0,0,0-.263-.938.888.888,0,0,0-.866-.353,5.248,5.248,0,0,0-1.177.42,2.089,2.089,0,0,1-.337.1.427.427,0,0,1-.429-.215,8.622,8.622,0,0,0-.792-.969,1.022,1.022,0,0,0-.33-.221V8.9H8.2c-.028.054-.075.018-.113.026h0A.108.108,0,0,0,8.072,8.9H7.948a.18.18,0,0,0-.012.026c-.038-.009-.085.028-.113-.026H7.666c-.018.143-.163.16-.247.223a3.979,3.979,0,0,0-.6.685c-.093.11-.169.234-.262.344-.244.285-.4.31-.791.159a6.956,6.956,0,0,0-1.042-.4.924.924,0,0,0-.817.126,1.042,1.042,0,0,0-.339.536,5.715,5.715,0,0,0-.161,1.016,1.725,1.725,0,0,1-.125.475.159.159,0,0,1-.086.1,2.5,2.5,0,0,1-.663.179,2.191,2.191,0,0,0-1.283.351.752.752,0,0,0-.283.557,1.644,1.644,0,0,0,.253.965c.017,0,.03.009.021.03a4.274,4.274,0,0,0,.18.518c.028.123.038.249.074.371.018.058-.042.11-.083.156a4.092,4.092,0,0,1-.63.519,2.307,2.307,0,0,0-.7.708c-.031.059-.029.131-.088.172v.437l.161.31.029.03a3.468,3.468,0,0,0,.377.378l.241.18.171.131a1.52,1.52,0,0,1,.34.284.413.413,0,0,1,.125.126c.05.057.091.114.029.188a1.43,1.43,0,0,1-.124.5l-.105.255-.016.025-.074.187a1.613,1.613,0,0,0-.188.751c0,.073,0,.146,0,.22a1.038,1.038,0,0,0,.418.529l.307.133a2.918,2.918,0,0,0,.751.122l.094.055a.867.867,0,0,1,.672.132c.133.085.134.264.169.407a.467.467,0,0,1,.007.381c.161.2.065.448.142.67a1.627,1.627,0,0,0,.356.644.83.83,0,0,0,.751.154l.124-.009.157-.052.155-.041a.189.189,0,0,1,.125-.062c.012-.034.04-.023.064-.022a.234.234,0,0,1,.156-.064l.155-.07a.838.838,0,0,1,.374-.13c.058-.047.126-.014.188-.024.082-.062.154-.026.224.024.082.1.211.154.251.288.089.051.126.144.186.22.028.011.027.039.032.062a3.169,3.169,0,0,1,.31.377l.217.227a.24.24,0,0,1,.126.114,2.041,2.041,0,0,0,.439.163.956.956,0,0,0,.753-.3,6.582,6.582,0,0,0,.673-.806c.059-.071.115-.145.167-.222.181-.266.414-.144.636-.088a7.763,7.763,0,0,1,.924.366,1.011,1.011,0,0,0,1.148-.2,1.287,1.287,0,0,0,.231-.578,6.463,6.463,0,0,0,.134-.857c-.019-.049.037-.08.031-.125a1.668,1.668,0,0,1,.109-.348c.058-.155.208-.146.332-.183.385-.115.792-.085,1.179-.188a1.3,1.3,0,0,0,.59-.3.888.888,0,0,0,.232-.572v-.094a3.581,3.581,0,0,0-.288-.889A3.686,3.686,0,0,1,14.557,19a.542.542,0,0,1,.266-.707,3.375,3.375,0,0,0,.345-.255c.008-.016.016-.032.038-.027a3.116,3.116,0,0,0,.621-.575A.9.9,0,0,0,15.719,16.249Zm-9.453.235c0,.6,0,1.209-.009,1.813a.342.342,0,0,1-.286.353.32.32,0,0,1-.351-.16c-.463-.621-.931-1.237-1.41-1.872a.309.309,0,0,0-.028.181c0,.448-.009.9,0,1.344a.789.789,0,0,1-.109.36.292.292,0,0,1-.327.154.424.424,0,0,1-.271-.339V15.739a.724.724,0,0,0,0-.11.4.4,0,0,1,.118-.378c0-.016.011-.029.032-.021a.382.382,0,0,1,.514.144c.354.473.705.95,1.06,1.424.083.112.177.216.265.325.022.028.034.074.078.061s.026-.062.026-.1c0-.516,0-1.032,0-1.548a.352.352,0,0,1,.133-.294.334.334,0,0,1,.358-.04.357.357,0,0,1,.2.354C6.269,15.869,6.267,16.176,6.266,16.484Zm2.446,2.169q-.718.01-1.437,0a.333.333,0,0,1-.3-.3c0-.052-.007-.1-.007-.155,0-.854.008-1.709,0-2.562-.006-.386.191-.469.467-.466.386,0,.771,0,1.156,0,.173,0,.356.009.427.225a.345.345,0,0,1-.336.473c-.3,0-.594,0-.89,0-.092,0-.131.022-.126.121.009.182.006.365.008.547,0,.021.008.029.028.024l.9,0c.231,0,.353.072.408.23a.343.343,0,0,1-.315.461c-.333.008-.665.006-1,.008-.02,0-.03,0-.028.024,0,.182,0,.365-.008.547,0,.1.032.121.125.123a7.991,7.991,0,0,1,.95.018.327.327,0,0,1,.306.338A.347.347,0,0,1,8.711,18.653Zm2.184-.044s0,.007.006.007S10.9,18.613,10.9,18.608Zm2.139-2.246c-.16.667-.343,1.331-.516,1.995a.339.339,0,0,1-.664.052c-.106-.3-.207-.612-.312-.918-.016-.045-.034-.091-.061-.16-.12.357-.233.685-.339,1.016a.39.39,0,0,1-.17.231.022.022,0,0,0-.024,0c-.022,0-.045-.012-.055.02h0l0,0c-.242.082-.4,0-.465-.278q-.334-1.309-.656-2.622a.8.8,0,0,1-.01-.186.313.313,0,0,1,.232-.325.347.347,0,0,1,.424.222c.1.374.194.751.289,1.126.039.151.075.3.121.485.142-.293.2-.582.308-.852a.425.425,0,0,1,.359-.283.466.466,0,0,1,.334.286c.073.216.147.432.217.651a.331.331,0,0,0,.089.149,2.752,2.752,0,0,0,.16-.578c.084-.3.15-.6.227-.9a.348.348,0,0,1,.5-.272.25.25,0,0,1,.182.255A2.824,2.824,0,0,1,13.035,16.362Z" transform="translate(0 -8.9)" fill="#dea504"/>
</svg>
