<svg xmlns="http://www.w3.org/2000/svg" width="9.631" height="9.631" viewBox="0 0 9.631 9.631">
  <path id="percentage" d="M.6,9.63A.6.6,0,0,1,.176,8.6L8.6.176a.6.6,0,0,1,.851.851L1.027,9.454A.6.6,0,0,1,.6,9.63Zm3.01-7.825A1.806,1.806,0,1,0,1.805,3.611,1.808,1.808,0,0,0,3.611,1.805Zm-1.2,0a.6.6,0,1,1-.6-.6A.6.6,0,0,1,2.407,1.805ZM9.63,7.824A1.806,1.806,0,1,0,7.824,9.63,1.808,1.808,0,0,0,9.63,7.824Zm-1.2,0a.6.6,0,1,1-.6-.6A.6.6,0,0,1,8.426,7.824Z" transform="translate(0 0)" fill="#20c799"/>
</svg>
