<svg xmlns="http://www.w3.org/2000/svg" width="14.8" height="14.779" viewBox="0 0 14.8 14.779">
  <path id="recycle" d="M4.763,1.889l.382-.617a2.669,2.669,0,0,1,4.508,0l1.314,2.089L11.8,2.79a.925.925,0,0,1,1.431.934l-.454,2.431a1.236,1.236,0,0,1-1.21,1.01c-.08,0-2.652-.5-2.652-.5A.925.925,0,0,1,8.577,5l.86-.588L8.081,2.255a.8.8,0,0,0-1.36-.007l-.383.617a.926.926,0,0,1-1.574-.975ZM14.4,8.93l-.356-.574a.925.925,0,1,0-1.572.974l.356.575a.8.8,0,0,1-.68,1.214h-2.9v-.932a.925.925,0,0,0-1.555-.678l-1.713,1.6a1.233,1.233,0,0,0-.024,1.845l1.738,1.613a.925.925,0,0,0,1.555-.678v-.918h2.9A2.647,2.647,0,0,0,14.4,8.93ZM4.994,5.181A1.238,1.238,0,0,0,3.541,4.2l-2.409.474A.925.925,0,0,0,.789,6.345l.851.581L.4,8.93a2.609,2.609,0,0,0-.062,2.677,2.623,2.623,0,0,0,2.327,1.362l.736-.007a.925.925,0,1,0-.018-1.85l-.731.007A.8.8,0,0,1,1.972,9.9l1.2-1.934.846.578a.925.925,0,0,0,1.431-.934Z" transform="translate(0.003 -0.033)" fill="#666"/>
</svg>
