<svg xmlns="http://www.w3.org/2000/svg" width="15.671" height="15.822" viewBox="0 0 15.671 15.822">
  <g id="refresh" transform="translate(-2.461)">
    <path id="Path_1" data-name="Path 1" d="M4.42,7.044A5.938,5.938,0,0,1,14.154,3.4l-.765.765a.657.657,0,0,0,.464,1.121h3.013a.657.657,0,0,0,.657-.657V1.613A.657.657,0,0,0,16.4,1.149L15.547,2A7.9,7.9,0,0,0,2.474,6.757a.984.984,0,1,0,1.946.287Z" transform="translate(0 0)" fill="#045b88"/>
    <path id="Path_2" data-name="Path 2" d="M36.314,256.891a1,1,0,0,0-.976.867,5.938,5.938,0,0,1-9.734,3.647l.765-.765a.657.657,0,0,0-.464-1.121H22.892a.657.657,0,0,0-.657.657v3.013a.657.657,0,0,0,1.121.464l.854-.854a7.9,7.9,0,0,0,13.073-4.753.995.995,0,0,0-.97-1.155Z" transform="translate(-19.165 -248.98)" fill="#045b88"/>
  </g>
</svg>
