<svg xmlns="http://www.w3.org/2000/svg" width="12.192" height="14.799" viewBox="0 0 12.192 14.799">
  <path id="running" d="M8.254,1.542A1.542,1.542,0,1,1,9.8,3.083,1.542,1.542,0,0,1,8.254,1.542Zm4.12,4.625L10.86,4.44A2.158,2.158,0,0,0,9.235,3.7H4.041L2.228,6.6,3.8,7.584,5.067,5.55H6.712l-.778,1.9a2.165,2.165,0,0,0,.88,2.665l2.672,1.521V14.8h1.85V10.561L8.6,9,9.828,6.064l1.706,1.952H14.42V6.166ZM5.412,10.5l-.247.6H2.7v1.85H6.4l.55-1.334L6.2,11.188a3.625,3.625,0,0,1-.792-.688Z" transform="translate(-2.228)" fill="#666"/>
</svg>
