<svg id="shop" xmlns="http://www.w3.org/2000/svg" width="12.254" height="12.254" viewBox="0 0 12.254 12.254">
  <path id="Path_1729" data-name="Path 1729" d="M10.191,16.6a3.06,3.06,0,0,1-1.532-.412,3.06,3.06,0,0,1-1.532.412H6.106a3.032,3.032,0,0,1-1.532-.418,3.031,3.031,0,0,1-1.532.418H2.532A3.037,3.037,0,0,1,1,16.185v2.457a1.532,1.532,0,0,0,1.532,1.532H10.7a1.532,1.532,0,0,0,1.532-1.532V16.185A3.042,3.042,0,0,1,10.7,16.6Z" transform="translate(-0.489 -7.92)" fill="#666"/>
  <path id="Path_1730" data-name="Path 1730" d="M8.68,0V3.063H7.659V0H4.6V3.063H3.574V0H1.123L.012,4.995,0,5.616A2.042,2.042,0,0,0,2.042,7.659h.511a2.03,2.03,0,0,0,1.532-.706,2.03,2.03,0,0,0,1.532.706H6.638a2.037,2.037,0,0,0,1.532-.693A2.037,2.037,0,0,0,9.7,7.659h.511a2.042,2.042,0,0,0,2.042-2.042V5.106L11.131,0Z" fill="#666"/>
</svg>
