<svg xmlns="http://www.w3.org/2000/svg" width="13.807" height="13.617" viewBox="0 0 13.807 13.617">
  <path id="star-comment-alt" d="M11.506,0H2.3A2.3,2.3,0,0,0,0,2.3V9.2a2.3,2.3,0,0,0,2.3,2.3h1.68l2.157,1.818a1.154,1.154,0,0,0,.771.293,1.078,1.078,0,0,0,.742-.282l2.215-1.829h1.64a2.3,2.3,0,0,0,2.3-2.3V2.3A2.3,2.3,0,0,0,11.506,0ZM9.878,5.534,8.629,6.552l.518,1.571a.522.522,0,0,1-.178.581.528.528,0,0,1-.61.023l-1.45-.943-1.427.955a.538.538,0,0,1-.61-.017.525.525,0,0,1-.184-.581l.495-1.588L3.929,5.534a.525.525,0,0,1,.339-.926H5.851l.558-1.5a.527.527,0,0,1,.989,0l.558,1.5H9.538a.528.528,0,0,1,.495.345.539.539,0,0,1-.155.587Z" fill="#666"/>
</svg>
