<svg xmlns="http://www.w3.org/2000/svg" width="12.505" height="13.646" viewBox="0 0 12.505 13.646">
  <path id="tags_2_" data-name="tags (2)" d="M4.813,5.262a.568.568,0,1,1-.8,0,.568.568,0,0,1,.8,0Zm7.876,3.46-.321.321a2.83,2.83,0,0,1-.816,1.933L9.751,12.8a2.823,2.823,0,0,1-2.014.845h-.01a2.823,2.823,0,0,1-2.009-.832L1.5,8.632A1.7,1.7,0,0,1,1.01,7.237l.435-3.932a.569.569,0,0,1,.488-.5L5.85,2.269a1.716,1.716,0,0,1,1.437.484l4.25,4.214a2.838,2.838,0,0,1,.529.732,1.712,1.712,0,0,0-.194-2.18L7.556,1.308a.574.574,0,0,0-.484-.166l-3.917.536A.568.568,0,1,1,3,.552L6.918.016A1.706,1.706,0,0,1,8.355.5L12.67,4.71a2.851,2.851,0,0,1,.018,4.012Zm-1.955-.949L6.484,3.558A.578.578,0,0,0,6,3.4l-3.477.476L2.14,7.362a.565.565,0,0,0,.163.464l4.216,4.181a1.693,1.693,0,0,0,1.207.5h.006A1.69,1.69,0,0,0,8.941,12l1.8-1.824a1.709,1.709,0,0,0-.008-2.4Z" transform="translate(-1 0.001)" fill="#045b88"/>
</svg>
