<svg xmlns="http://www.w3.org/2000/svg" width="14.843" height="10.457" viewBox="0 0 14.843 10.457">
  <g id="XMLID_184_" transform="translate(0 -3.546)">
    <path id="Path_1732" data-name="Path 1732" d="M14.533,5.179A1.866,1.866,0,0,0,13.22,3.858a44.133,44.133,0,0,0-5.8-.312,44.146,44.146,0,0,0-5.8.312A1.865,1.865,0,0,0,.31,5.179,19.546,19.546,0,0,0,0,8.775a19.546,19.546,0,0,0,.31,3.6,1.866,1.866,0,0,0,1.312,1.321,44.132,44.132,0,0,0,5.8.312,44.146,44.146,0,0,0,5.8-.312,1.867,1.867,0,0,0,1.312-1.321,19.584,19.584,0,0,0,.31-3.6A19.546,19.546,0,0,0,14.533,5.179ZM5.9,10.982V6.567L9.783,8.775Z" fill="#666"/>
  </g>
</svg>
